<svg width="" height="" viewBox="0 0 1440 456" fill="none" xmlns="http://www.w3.org/2000/svg">
<path d="M100.5 0L100.5 455.045M200.5 0L200.5 455.045M300.5 0L300.5 455.045M400.5 0L400.5 455.045M500.5 0L500.5 455.045M600.5 0V455.045M700.5 0V455.045M800.5 0V455.045M900.5 0V455.045M1000.5 0V455.045M1100.5 0V455.045M1200.5 0V455.045M1300.5 0V455.045M0 47.2516H1440M0 94.0669H1440M0 140.882H1440M0 187.697H1440M0 234.513H1440M0 281.328H1440M0 328.143H1440M0 374.959H1440M0 421.774H1440" stroke="url(#paint0_linear_187_311)" stroke-opacity="0.88"/>
<defs>
<linearGradient id="paint0_linear_187_311" x1="720" y1="0" x2="720" y2="455.045" gradientUnits="userSpaceOnUse">
<stop stop-color="#292D35"/>
<stop offset="1" stop-color="#292D35" stop-opacity="0"/>
</linearGradient>
</defs>
</svg>
