<svg width="45" height="45" viewBox="0 0 45 45" fill="none" xmlns="http://www.w3.org/2000/svg">
<path d="M45 22.5C45 34.9264 34.9264 45 22.5 45C10.0736 45 0 34.9264 0 22.5C0 10.0736 10.0736 0 22.5 0C34.9264 0 45 10.0736 45 22.5Z" fill="#1D1E21"/>
<path fill-rule="evenodd" clip-rule="evenodd" d="M8.16814 29.0539C13.7434 29.5583 19.4425 28.1424 24.1504 25.107C18.5752 26.4699 12.9292 25.8592 8 23.6999L15.3186 11.0274L14.5222 21.4433L22.2832 8.00085L37.8319 16.9743C32.2566 16.4699 26.5575 17.8858 21.8496 20.9212C27.4248 19.5583 33.0708 20.169 38 22.3282L30.6814 35.0008L31.4779 24.5849L23.7168 38.0274L8.16814 29.0539Z" fill="#F76538"/>
</svg>
