<?xml version="1.0" encoding="UTF-8"?>
<svg fill="none" viewBox="0 0 24 24" xmlns="http://www.w3.org/2000/svg">
<g clip-path="url(#a)">
<path d="m12 18.676c3.6877 0 6.677-2.9895 6.677-6.6772 0-3.6876-2.9893-6.6771-6.677-6.6771-3.6876 0-6.6771 2.9895-6.6771 6.6771 0 3.6877 2.9894 6.6772 6.6771 6.6772z" fill="#fff"/>
<path d="m3.3645 8.7185c-0.49809-0.86278-1.0836-1.7683-1.7565-2.7166-1.0534 1.8241-1.608 3.8934-1.608 5.9999-3.578e-5 2.1064 0.55449 4.1757 1.6078 5.9999 1.0533 1.8242 2.5684 3.3389 4.3928 4.3918 1.8244 1.053 3.8938 1.6071 6.0003 1.6066 1.1044-1.549 1.8544-2.666 2.2496-3.3506 0.7593-1.3152 1.7412-3.198 2.9459-5.6486v-0.0014c-0.5263 0.9125-1.2836 1.6704-2.1957 2.1973-0.9121 0.527-1.9469 0.8045-3.0002 0.8047-1.0534 1e-4 -2.0883-0.2771-3.0006-0.8038-0.91227-0.5266-1.6698-1.2842-2.1964-2.1966-1.6362-3.0513-2.7825-5.1456-3.439-6.2826z" fill="#229342"/>
<path d="m12.001 24c1.5759 3e-4 3.1364-0.3099 4.5923-0.9129 1.456-0.603 2.7789-1.4869 3.8932-2.6013 1.1143-1.1143 1.9981-2.4373 2.601-3.8933s0.9131-3.0165 0.9127-4.5924c-4e-4 -2.1064-0.5553-4.1757-1.609-5.9997-2.2733-0.22406-3.9509-0.33609-5.0331-0.33609-1.227 0-3.013 0.11203-5.358 0.33609l-0.0013 9.4e-4c1.0534-4.9e-4 2.0884 0.27639 3.0008 0.8028 0.9125 0.52641 1.6702 1.2838 2.1971 2.196 0.5268 0.91222 0.8042 1.9471 0.8042 3.0005s-0.2774 2.0883-0.8043 3.0005l-5.1956 8.9989z" fill="#FBC116"/>
<path d="m12 16.751c2.6235 0 4.7502-2.1267 4.7502-4.7503 0-2.6237-2.1267-4.7504-4.7503-4.7504-2.6234 0-4.7502 2.1268-4.7502 4.7504 0 2.6235 2.1268 4.7503 4.7503 4.7503z" fill="#1A73E8"/>
<path d="m12 6.0004h10.391c-1.053-1.8244-2.5677-3.3395-4.3919-4.3928-1.8242-1.0533-3.8936-1.6078-6-1.6076-2.1065 1.4253e-4 -4.1758 0.55489-5.9998 1.6085-1.824 1.0536-3.3386 2.5688-4.3913 4.3934l5.1955 8.999 0.00141 8e-4c-0.52711-0.912-0.80478-1.9468-0.80509-3.0002s0.27675-2.0883 0.80332-3.0007c0.52657-0.91235 1.2841-1.67 2.1964-2.1967s1.9472-0.80391 3.0006-0.80376l-1e-4 1e-4z" fill="#E33B2E"/>
</g>
<defs>
<clipPath id="a">
<rect width="24" height="24" fill="#fff"/>
</clipPath>
</defs>
</svg>
