<svg width="126" height="45" viewBox="0 0 126 45" fill="none" xmlns="http://www.w3.org/2000/svg">
<path d="M48.3213 25.2529C48.3213 26.7198 47.7757 27.8429 46.6845 28.6224C45.6003 29.3947 44.0059 29.7809 41.9014 29.7809C38.1104 29.7809 35.9031 28.4098 35.2795 25.6675L38.3088 25.1679C38.5143 25.9616 38.9146 26.5391 39.5099 26.9004C40.1051 27.2547 40.9306 27.4319 41.9864 27.4319C43.0848 27.4319 43.9067 27.2654 44.4524 26.9323C44.998 26.5993 45.2708 26.0997 45.2708 25.4336C45.2708 25.0085 45.1468 24.6577 44.8988 24.3814C44.6508 24.105 44.2965 23.8747 43.8359 23.6905C43.6091 23.5984 43.2761 23.4992 42.8367 23.3929C42.3974 23.2795 41.8518 23.1555 41.1999 23.0209C40.4488 22.8437 39.8606 22.6949 39.4355 22.5744C39.0103 22.4469 38.6702 22.3264 38.4151 22.213C38.16 22.0926 37.912 21.9615 37.671 21.8198C37.1396 21.5009 36.7251 21.0757 36.4274 20.5443C36.1298 20.0128 35.981 19.3503 35.981 18.5567C35.981 17.2032 36.4877 16.1687 37.501 15.453C38.5214 14.7302 40.0023 14.3688 41.9439 14.3688C43.8004 14.3688 45.1928 14.6594 46.1211 15.2404C47.0565 15.8215 47.6588 16.7816 47.9281 18.1209L44.8881 18.5354C44.7323 17.8906 44.4134 17.4052 43.9315 17.0792C43.4568 16.7533 42.773 16.5903 41.8801 16.5903C40.9306 16.5903 40.2185 16.7391 39.7437 17.0367C39.2689 17.3343 39.0316 17.7807 39.0316 18.376C39.0316 18.7657 39.1308 19.0846 39.3292 19.3326C39.5347 19.5806 39.8358 19.7932 40.2326 19.9703C40.6082 20.1404 41.4125 20.3565 42.6454 20.6187C43.3611 20.7746 43.9776 20.9234 44.4949 21.0651C45.0122 21.1997 45.4267 21.3308 45.7385 21.4584C46.0503 21.593 46.3266 21.7347 46.5675 21.8835C46.8155 22.0324 47.0281 22.1918 47.2053 22.3619C47.5667 22.7091 47.843 23.1236 48.0343 23.6055C48.2257 24.0802 48.3213 24.6294 48.3213 25.2529Z" fill="white"/>
<path d="M65.1896 22.0111C65.1896 23.57 64.8743 24.9341 64.2436 26.1033C63.62 27.2654 62.7378 28.1688 61.597 28.8137C60.4632 29.4585 59.1311 29.7809 57.6005 29.7809C56.0345 29.7809 54.6881 29.4691 53.5614 28.8456C52.4348 28.2149 51.5703 27.3185 50.968 26.1564C50.3656 24.9943 50.0645 23.6125 50.0645 22.0111C50.0645 20.4097 50.3621 19.0385 50.9573 17.8977C51.5596 16.7568 52.4241 15.8852 53.5508 15.2829C54.6846 14.6735 56.0415 14.3688 57.6217 14.3688C59.209 14.3688 60.566 14.6771 61.6926 15.2936C62.8193 15.9029 63.6838 16.7781 64.2861 17.9189C64.8884 19.0598 65.1896 20.4238 65.1896 22.0111ZM61.9903 22.0111C61.9903 20.3955 61.6076 19.1306 60.8423 18.2165C60.077 17.2954 59.0035 16.8348 57.6217 16.8348C56.2187 16.8348 55.1345 17.2918 54.3692 18.2059C53.604 19.1129 53.2213 20.3813 53.2213 22.0111C53.2213 23.1023 53.3985 24.0448 53.7528 24.8384C54.1071 25.6321 54.6102 26.245 55.2621 26.6772C55.9211 27.1024 56.7005 27.315 57.6005 27.315C59.0035 27.315 60.0841 26.8544 60.8423 25.9332C61.6076 25.012 61.9903 23.7047 61.9903 22.0111Z" fill="white"/>
<path d="M70.7061 23.8818V29.5683H67.5705V14.592H75.0533C76.839 14.592 78.2172 14.9782 79.188 15.7506C80.1588 16.5159 80.6442 17.6178 80.6442 19.0562C80.6442 20.105 80.3466 21.012 79.7514 21.7773C79.1561 22.5355 78.3519 23.035 77.3386 23.276L81.3882 29.5683H77.8594L74.3837 23.8818H70.7061ZM77.4874 19.1838C77.4874 18.4681 77.2571 17.9295 76.7965 17.5682C76.3359 17.2068 75.645 17.0261 74.7238 17.0261H70.7061V21.4478H74.8089C75.6875 21.4478 76.3536 21.2493 76.8071 20.8525C77.2606 20.4557 77.4874 19.8995 77.4874 19.1838Z" fill="white"/>
<path d="M90.0615 17.0155V29.5683H86.9259V17.0155H82.0897V14.592H94.9083V17.0155H90.0615Z" fill="white"/>
<path d="M108.822 27.1449V29.5683H96.609V14.592H108.386V17.0155H99.7446V20.7781H107.738V23.2015H99.7446V27.1449H108.822Z" fill="white"/>
<path d="M116.942 23.6055L113.18 29.5683H109.863L115.05 21.6922L110.299 14.592H113.615L116.942 19.8853L120.269 14.592H123.564L119.015 21.6922L124 29.5683H120.705L116.942 23.6055Z" fill="white"/>
<path fill-rule="evenodd" clip-rule="evenodd" d="M2.14234 26.8223C6.862 27.2493 11.6865 26.0507 15.672 23.4811C10.9524 24.6348 6.17278 24.1179 2 22.29L8.19551 11.5621L7.5213 20.3796L14.0913 9L27.254 16.5964C22.5343 16.1694 17.7097 17.368 13.7243 19.9376C18.4439 18.7839 23.2235 19.3008 27.3963 21.1288L21.2008 31.8566L21.875 23.0391L15.305 34.4187L2.14234 26.8223Z" fill="#F76538"/>
</svg>
